<svg width="100" height="100" viewBox="0 0 100 100" fill="none" xmlns="http://www.w3.org/2000/svg">
<path d="M33.3333 66.6667L29.3805 65.349C28.8814 66.8463 29.2711 68.497 30.3871 69.6129C31.503 70.7289 33.1537 71.1186 34.6509 70.6195L33.3333 66.6667ZM41.6667 41.6667L40.349 37.7138C39.1049 38.1285 38.1285 39.1049 37.7138 40.349L41.6667 41.6667ZM66.6667 33.3333L70.6195 34.6509C71.1186 33.1537 70.7289 31.503 69.6129 30.3871C68.497 29.2711 66.8463 28.8814 65.349 29.3805L66.6667 33.3333ZM58.3333 58.3333L59.6509 62.2862C60.8951 61.8714 61.8714 60.8951 62.2862 59.6509L58.3333 58.3333ZM83.3333 50C83.3333 68.4095 68.4095 83.3333 50 83.3333V91.6667C73.0119 91.6667 91.6667 73.0119 91.6667 50H83.3333ZM50 83.3333C31.5905 83.3333 16.6667 68.4095 16.6667 50H8.33333C8.33333 73.0119 26.9881 91.6667 50 91.6667V83.3333ZM16.6667 50C16.6667 31.5905 31.5905 16.6667 50 16.6667V8.33333C26.9881 8.33333 8.33333 26.9881 8.33333 50H16.6667ZM50 16.6667C68.4095 16.6667 83.3333 31.5905 83.3333 50H91.6667C91.6667 26.9881 73.0119 8.33333 50 8.33333V16.6667ZM37.2862 67.9843L45.6195 42.9843L37.7138 40.349L29.3805 65.349L37.2862 67.9843ZM42.9843 45.6195L67.9843 37.2862L65.349 29.3805L40.349 37.7138L42.9843 45.6195ZM62.7138 32.0157L54.3805 57.0157L62.2862 59.6509L70.6195 34.6509L62.7138 32.0157ZM57.0157 54.3805L32.0157 62.7138L34.6509 70.6195L59.6509 62.2862L57.0157 54.3805Z" fill="#09090B"/>
</svg>
