<svg width="100" height="100" viewBox="0 0 100 100" fill="none" xmlns="http://www.w3.org/2000/svg">
<path d="M16.6667 45.4481C16.6667 43.045 17.704 40.759 19.5125 39.1766L44.5124 17.3016C47.6543 14.5525 52.3456 14.5524 55.4875 17.3016L80.4875 39.1766C82.296 40.759 83.3333 43.045 83.3333 45.4481V75C83.3333 79.6024 79.6024 83.3333 75 83.3333H66.6667C62.0643 83.3333 58.3333 79.6024 58.3333 75V66.6667C58.3333 62.0643 54.6024 58.3333 50 58.3333V58.3333C45.3976 58.3333 41.6667 62.0643 41.6667 66.6667V75C41.6667 79.6024 37.9357 83.3333 33.3333 83.3333H25C20.3976 83.3333 16.6667 79.6024 16.6667 75V45.4481Z" stroke="#09090B" stroke-width="8.33333" stroke-linejoin="round"/>
</svg>
