<svg width="100" height="100" viewBox="0 0 100 100" fill="none" xmlns="http://www.w3.org/2000/svg">
<path d="M50 21.9863L46.9241 24.7969C47.7135 25.6608 48.8298 26.1529 50 26.1529C51.1702 26.1529 52.2865 25.6608 53.0759 24.7969L50 21.9863ZM18.1974 19.939L15.1214 17.1283L18.1974 19.939ZM18.1974 52.6958L14.5438 54.6989L18.1974 52.6958ZM50 87.5L47.1634 90.552C48.7678 92.0433 51.253 92.0375 52.8506 90.5389L50 87.5ZM53.0759 19.1756C47.0516 12.5827 40.4822 8.68321 33.5952 8.35551C26.6101 8.02315 20.3485 11.4079 15.1214 17.1283L21.2733 22.7496C25.4 18.2334 29.4275 16.5 33.1991 16.6794C37.0689 16.8636 41.7239 19.106 46.9241 24.7969L53.0759 19.1756ZM15.1214 17.1283C9.58164 23.1909 7.87942 30.0011 8.43276 36.6623C8.97107 43.1426 11.6248 49.3749 14.5438 54.6989L21.8509 50.6927C19.1576 45.7802 17.1346 40.7523 16.7375 35.9725C16.3555 31.3735 17.4594 26.9235 21.2733 22.7496L15.1214 17.1283ZM14.5438 54.6989C16.2373 57.7879 19.2106 61.5824 22.4892 65.3723C25.824 69.2272 29.6818 73.3114 33.322 77.0254C36.9675 80.7449 40.4237 84.1225 42.9669 86.5689C44.2394 87.7928 45.2852 88.7856 46.0143 89.4736C46.379 89.8177 46.6645 90.0857 46.8597 90.2685C46.9574 90.3599 47.0324 90.4299 47.0835 90.4776C47.109 90.5014 47.1286 90.5196 47.1419 90.532C47.1486 90.5383 47.1538 90.5431 47.1573 90.5464C47.1591 90.5481 47.1605 90.5494 47.1615 90.5503C47.162 90.5508 47.1625 90.5512 47.1628 90.5514C47.1631 90.5518 47.1634 90.552 50 87.5C52.8366 84.448 52.8367 84.4481 52.8367 84.448C52.8365 84.4479 52.8364 84.4478 52.8361 84.4475C52.8355 84.447 52.8346 84.4461 52.8332 84.4448C52.8305 84.4423 52.8262 84.4383 52.8204 84.4329C52.8088 84.4221 52.7911 84.4056 52.7674 84.3835C52.7199 84.3392 52.6486 84.2726 52.5548 84.1848C52.3672 84.0092 52.0898 83.7488 51.7337 83.4128C51.0214 82.7407 49.995 81.7664 48.744 80.5631C46.2405 78.1549 42.8456 74.8369 39.2734 71.1923C35.696 67.5423 31.9696 63.594 28.7916 59.9203C25.5575 56.1817 23.0895 52.9517 21.8509 50.6927L14.5438 54.6989ZM50 87.5C52.8506 90.5389 52.8509 90.5387 52.8512 90.5384C52.8515 90.5381 52.8519 90.5377 52.8524 90.5372C52.8534 90.5363 52.8548 90.535 52.8566 90.5333C52.8602 90.53 52.8654 90.5251 52.8721 90.5188C52.8855 90.5062 52.9052 90.4877 52.9309 90.4635C52.9823 90.4151 53.0579 90.3439 53.1562 90.251C53.353 90.0652 53.6408 89.7927 54.0083 89.4431C54.7433 88.7439 55.7973 87.7355 57.0788 86.4943C59.6403 84.0132 63.1183 80.5942 66.7774 76.8481C70.4312 73.1074 74.2942 69.0115 77.6142 65.1818C80.8721 61.4236 83.8216 57.6805 85.4562 54.6989L78.1491 50.6927C76.9776 52.8294 74.5487 55.9959 71.3175 59.7232C68.1483 63.3789 64.4114 67.3443 60.8161 71.0251C57.226 74.7005 53.8056 78.0632 51.2811 80.5085C50.0195 81.7303 48.9836 82.7213 48.2643 83.4056C47.9047 83.7478 47.6244 84.0131 47.4348 84.1922C47.3399 84.2817 47.2678 84.3497 47.2198 84.3949C47.1957 84.4175 47.1777 84.4344 47.166 84.4455C47.1601 84.4511 47.1557 84.4551 47.1529 84.4577C47.1516 84.459 47.1506 84.46 47.15 84.4605C47.1497 84.4608 47.1495 84.4609 47.1494 84.4611C47.1493 84.4611 47.1494 84.4611 50 87.5ZM85.4562 54.6989C88.3752 49.3749 91.0289 43.1426 91.5672 36.6623C92.1206 30.0011 90.4184 23.191 84.8786 17.1283L78.7267 22.7496C82.5406 26.9235 83.6445 31.3736 83.2625 35.9725C82.8655 40.7524 80.8424 45.7802 78.1491 50.6927L85.4562 54.6989ZM84.8786 17.1283C79.6515 11.408 73.39 8.02317 66.4048 8.35553C59.5178 8.68322 52.9484 12.5827 46.9241 19.1756L53.0759 24.7969C58.2761 19.106 62.9311 16.8636 66.8009 16.6794C70.5725 16.5 74.6 18.2335 78.7267 22.7496L84.8786 17.1283Z" fill="#09090B"/>
</svg>
